<?xml version="1.0" encoding="utf-8"?>
<!-- Generator: Adobe Illustrator 23.1.0, SVG Export Plug-In . SVG Version: 6.00 Build 0)  -->
<svg version="1.1" id="Layer_1" xmlns="http://www.w3.org/2000/svg" xmlns:xlink="http://www.w3.org/1999/xlink" x="0px" y="0px"
	 viewBox="0 0 237.5 136.93" style="enable-background:new 0 0 237.5 136.93;" xml:space="preserve">
<style type="text/css">
	.st0{fill:#EECDE1;stroke:#231F20;stroke-width:0.5;stroke-miterlimit:10;}
	.st1{fill:none;}
	.st2{fill:#FCF8CD;}
	.st3{stroke:#231F20;stroke-width:0.5;stroke-miterlimit:10;}
	.st4{fill:none;stroke:#000000;stroke-width:0.5;stroke-miterlimit:10;}
	.st5{fill:#231F20;}
	.st6{font-family:'FuturaPT-Light';}
	.st7{font-size:23.878px;}
</style>
<path class="st0" d="M208.58,136.93"/>
<path class="st0" d="M57.2,19.92"/>
<polygon class="st1" points="112.01,81.08 112.01,78.6 112.01,78.6 112.01,81.08 "/>
<path class="st0" d="M230.75,0.43L6.06,0.25L0.26,120.84c-0.18,3.66,1.39,7.57,4.72,9.1c0.13,0.06,0.26,0.1,0.4,0.11
	c7.69,0.77,194.04,3.02,222.54,2.86c3.77-0.02,6.73-4.39,8.39-7.77c0.56-1.15,0.94-2.49,0.94-4.03
	C237.26,114.7,230.75,0.43,230.75,0.43z"/>
<path class="st0" d="M2.7,128.27c-0.52,1.73,0.53,5.31,12.77,5.41c42.53,0.35,210.33,0.64,213.11,0.55c5.68-0.19,5.4-5.49,5.4-5.49"
	/>
<path class="st2" d="M4.72,128.27c0,0-2.42,3.81,5.39,4.6c10.26,1.04,171.91,0.34,205.28,0.63c5.55,0.05,14.08,1.11,16.42-0.88
	c2-1.71,0.95-3.6,0.87-3.91"/>
<polygon class="st3" points="236.47,105.98 1.19,105.02 0.64,112.99 236.96,113.45 "/>
<line class="st4" x1="233.98" y1="128.74" x2="2.7" y2="128.27"/>
<text transform="matrix(1 8.441592e-03 -8.441592e-03 1 36.0747 42.0403)"><tspan x="0" y="0" class="st5 st6 st7">Interaction Design </tspan><tspan x="48" y="28.65" class="st5 st6 st7">at GBC</tspan></text>
<polygon class="st1" points="81.68,60.48 86.24,60.52 86.24,60.52 81.68,60.48 "/>
</svg>
