<?xml version="1.0" encoding="utf-8"?>
<!-- Generator: Adobe Illustrator 23.1.0, SVG Export Plug-In . SVG Version: 6.00 Build 0)  -->
<svg version="1.1" id="Layer_1" xmlns="http://www.w3.org/2000/svg" xmlns:xlink="http://www.w3.org/1999/xlink" x="0px" y="0px"
	 viewBox="0 0 60 60" style="enable-background:new 0 0 60 60;" xml:space="preserve">
<style type="text/css">
	.st0{fill:#FFFFFF;}
	.st1{fill:#F48020;}
	.st2{fill:#2AA9E0;}
	.st3{fill:#36609F;}
</style>
<g id="XMLID_8_">
	<circle id="XMLID_41_" class="st0" cx="30" cy="30" r="26.65"/>
	<path id="XMLID_2_" class="st1" d="M30,0C13.43,0,0,13.43,0,30c0,16.57,13.43,30,30,30s30-13.43,30-30C60,13.43,46.57,0,30,0z
		 M19.04,44.97c-2.2,0-3.98-1.78-3.98-3.98c0-2.2,1.78-3.98,3.98-3.98c2.2,0,3.98,1.78,3.98,3.98
		C23.03,43.18,21.24,44.97,19.04,44.97z M29.04,44.99c0-3.76-1.46-7.29-4.1-9.94c-2.63-2.65-6.14-4.11-9.87-4.11V25.2
		c10.87,0,19.72,8.88,19.72,19.8H29.04z M39.19,45c0-13.37-10.82-24.25-24.12-24.25V15c16.47,0,29.87,13.46,29.87,30H39.19z"/>
</g>
</svg>
