<?xml version="1.0" encoding="utf-8"?>
<!-- Generator: Adobe Illustrator 23.1.0, SVG Export Plug-In . SVG Version: 6.00 Build 0)  -->
<svg version="1.1" id="Layer_1" xmlns="http://www.w3.org/2000/svg" xmlns:xlink="http://www.w3.org/1999/xlink" x="0px" y="0px"
	 viewBox="0 0 60 60" style="enable-background:new 0 0 60 60;" xml:space="preserve">
<style type="text/css">
	.st0{fill:#FFFFFF;}
	.st1{fill:#F48020;}
	.st2{fill:#2AA9E0;}
	.st3{fill:#36609F;}
</style>
<g id="XMLID_1_">
	<circle id="XMLID_38_" class="st0" cx="30" cy="30" r="26.65"/>
	<path id="XMLID_17_" class="st3" d="M30,0C13.43,0,0,13.43,0,30c0,16.57,13.43,30,30,30c16.57,0,30-13.43,30-30
		C60,13.43,46.57,0,30,0z M36.43,30.01h-4.2c0,6.72,0,14.99,0,14.99h-6.23c0,0,0-8.19,0-14.99h-2.96v-5.3h2.96v-3.43
		c0-2.45,1.16-6.29,6.29-6.29l4.61,0.02v5.14c0,0-2.81,0-3.35,0c-0.55,0-1.32,0.27-1.32,1.44v3.11h4.75L36.43,30.01z"/>
</g>
</svg>
