<?xml version="1.0" encoding="utf-8"?>
<!-- Generator: Adobe Illustrator 23.1.0, SVG Export Plug-In . SVG Version: 6.00 Build 0)  -->
<svg version="1.1" id="Layer_1" xmlns="http://www.w3.org/2000/svg" xmlns:xlink="http://www.w3.org/1999/xlink" x="0px" y="0px"
	 viewBox="0 0 60 60" style="enable-background:new 0 0 60 60;" xml:space="preserve">
<style type="text/css">
	.st0{fill:#FFFFFF;}
	.st1{fill:#F48020;}
	.st2{fill:#2AA9E0;}
	.st3{fill:#36609F;}
</style>
<g id="XMLID_7_">
	<circle id="XMLID_62_" class="st0" cx="30" cy="30" r="26.65"/>
	<path id="XMLID_59_" class="st2" d="M30,0C13.43,0,0,13.43,0,30c0,16.57,13.43,30,30,30c16.57,0,30-13.43,30-30
		C60,13.43,46.57,0,30,0z M41.93,23.88c0.01,0.26,0.02,0.53,0.02,0.79c0,8.13-6.19,17.51-17.51,17.51c-3.48,0-6.71-1.02-9.44-2.76
		c0.48,0.05,0.97,0.08,1.47,0.08c2.89,0,5.54-0.98,7.64-2.63c-2.69-0.05-4.97-1.83-5.75-4.27c0.38,0.07,0.76,0.11,1.16,0.11
		c0.56,0,1.11-0.08,1.62-0.22c-2.81-0.57-4.94-3.05-4.94-6.04c0-0.03,0-0.05,0-0.08c0.83,0.46,1.78,0.74,2.79,0.77
		c-1.65-1.1-2.74-2.99-2.74-5.12c0-1.13,0.3-2.19,0.83-3.09c3.03,3.72,7.57,6.17,12.69,6.43c-0.1-0.45-0.16-0.92-0.16-1.4
		c0-3.4,2.76-6.15,6.16-6.15c1.77,0,3.37,0.75,4.49,1.94c1.4-0.27,2.72-0.79,3.91-1.49c-0.46,1.44-1.44,2.64-2.71,3.41
		c1.25-0.15,2.43-0.48,3.53-0.97C44.18,21.93,43.13,23.02,41.93,23.88z"/>
</g>
</svg>
